<mxfile host="app.diagrams.net" agent="Mozilla/5.0 (Macintosh; Intel Mac OS X 10_15_7) AppleWebKit/537.36 (KHTML, like Gecko) Chrome/138.0.0.0 Safari/537.36" version="28.0.4">
  <diagram name="Page-1" id="8DbaZhC0Qgqps9hd8xX4">
    <mxGraphModel dx="1234" dy="790" grid="0" gridSize="10" guides="1" tooltips="1" connect="1" arrows="1" fold="1" page="0" pageScale="1" pageWidth="850" pageHeight="1100" math="0" shadow="0">
      <root>
        <mxCell id="0" />
        <mxCell id="1" parent="0" />
        <mxCell id="GKkhvcmkI-961NOV2ZCF-11" value="" style="rounded=1;whiteSpace=wrap;html=1;strokeWidth=2;fillColor=#e1d5e7;strokeColor=#000000;" vertex="1" parent="1">
          <mxGeometry x="536" y="337" width="120" height="60" as="geometry" />
        </mxCell>
        <mxCell id="GKkhvcmkI-961NOV2ZCF-9" value="" style="rounded=1;whiteSpace=wrap;html=1;strokeWidth=2;fillColor=#E6FFCC;strokeColor=#000000;" vertex="1" parent="1">
          <mxGeometry x="536" y="235" width="120" height="60" as="geometry" />
        </mxCell>
        <mxCell id="GKkhvcmkI-961NOV2ZCF-14" style="edgeStyle=orthogonalEdgeStyle;rounded=0;orthogonalLoop=1;jettySize=auto;html=1;exitX=1;exitY=0.5;exitDx=0;exitDy=0;entryX=0;entryY=0.5;entryDx=0;entryDy=0;strokeWidth=2;startArrow=classic;startFill=1;" edge="1" parent="1" source="GKkhvcmkI-961NOV2ZCF-7" target="GKkhvcmkI-961NOV2ZCF-9">
          <mxGeometry relative="1" as="geometry" />
        </mxCell>
        <mxCell id="GKkhvcmkI-961NOV2ZCF-15" style="edgeStyle=orthogonalEdgeStyle;rounded=0;orthogonalLoop=1;jettySize=auto;html=1;exitX=1;exitY=0.5;exitDx=0;exitDy=0;entryX=0;entryY=0.5;entryDx=0;entryDy=0;strokeWidth=2;" edge="1" parent="1" source="GKkhvcmkI-961NOV2ZCF-7" target="GKkhvcmkI-961NOV2ZCF-11">
          <mxGeometry relative="1" as="geometry" />
        </mxCell>
        <mxCell id="GKkhvcmkI-961NOV2ZCF-7" value="" style="rounded=1;whiteSpace=wrap;html=1;strokeWidth=2;" vertex="1" parent="1">
          <mxGeometry x="302" y="286" width="137" height="60" as="geometry" />
        </mxCell>
        <mxCell id="GKkhvcmkI-961NOV2ZCF-13" style="edgeStyle=orthogonalEdgeStyle;rounded=0;orthogonalLoop=1;jettySize=auto;html=1;exitX=1;exitY=0.5;exitDx=0;exitDy=0;entryX=0;entryY=0.5;entryDx=0;entryDy=0;startArrow=classic;startFill=1;strokeWidth=2;" edge="1" parent="1" source="GKkhvcmkI-961NOV2ZCF-1" target="GKkhvcmkI-961NOV2ZCF-7">
          <mxGeometry relative="1" as="geometry" />
        </mxCell>
        <mxCell id="GKkhvcmkI-961NOV2ZCF-1" value="" style="rounded=1;whiteSpace=wrap;html=1;strokeWidth=2;" vertex="1" parent="1">
          <mxGeometry x="106" y="286" width="120" height="60" as="geometry" />
        </mxCell>
        <mxCell id="GKkhvcmkI-961NOV2ZCF-2" value="&lt;font style=&quot;font-size: 16px;&quot;&gt;用户&lt;/font&gt;" style="text;html=1;align=center;verticalAlign=middle;whiteSpace=wrap;rounded=0;" vertex="1" parent="1">
          <mxGeometry x="161" y="303" width="60" height="30" as="geometry" />
        </mxCell>
        <mxCell id="GKkhvcmkI-961NOV2ZCF-3" value="&lt;span style=&quot;font-size: 16px;&quot;&gt;智能体&lt;/span&gt;" style="text;html=1;align=center;verticalAlign=middle;whiteSpace=wrap;rounded=0;" vertex="1" parent="1">
          <mxGeometry x="371" y="301" width="60" height="30" as="geometry" />
        </mxCell>
        <mxCell id="GKkhvcmkI-961NOV2ZCF-4" value="&lt;span style=&quot;font-size: 16px;&quot;&gt;记忆&lt;/span&gt;" style="text;html=1;align=center;verticalAlign=middle;whiteSpace=wrap;rounded=0;" vertex="1" parent="1">
          <mxGeometry x="592" y="252.75" width="60" height="30" as="geometry" />
        </mxCell>
        <mxCell id="GKkhvcmkI-961NOV2ZCF-5" value="&lt;span style=&quot;font-size: 16px;&quot;&gt;工具&lt;/span&gt;" style="text;html=1;align=center;verticalAlign=middle;whiteSpace=wrap;rounded=0;" vertex="1" parent="1">
          <mxGeometry x="592" y="352.01" width="60" height="30" as="geometry" />
        </mxCell>
        <mxCell id="GKkhvcmkI-961NOV2ZCF-6" value="" style="shape=image;verticalLabelPosition=bottom;labelBackgroundColor=default;verticalAlign=top;aspect=fixed;imageAspect=0;image=data:image/png,iVBORw0KGgoAAAANSUhEUgAAAMgAAADICAYAAACtWK6eAAAAAXNSR0IArs4c6QAAAERlWElmTU0AKgAAAAgAAYdpAAQAAAABAAAAGgAAAAAAA6ABAAMAAAABAAEAAKACAAQAAAABAAAAyKADAAQAAAABAAAAyAAAAACbWz2VAAAJvUlEQVR4Ae2dS2KjOBCGIbdJ9wW8a+dUyW7SO+dUSe98gZ7cJowkLCwYXnag9KiPRUCCCOlT/a6SjFFVsUEAAhCAAAQgAAEIQAACEIAABCAAAQhAAAIQgAAEIAABCEAAAhCAAAQgAAEIQAACEIAABCAAAQhAAAIQgAAEIAABCEAAAhCAAAQgAAEIQAACEIAABCAAAQhAAAIQgAAEIAABCEAAAhCAQNIE6qRrV2DlDp8vR9esr+pYPTS/3HFjjse2uvpw2V/1H7d/qD7Oj6c2z2XwZ28CCGRnwp0gquafakoIt9bBCseI5vzz9Hrrv3L9bQQQyG28Vl/dCmNDUUzdGbFMkdkkH4FsgrEtREwUU3Vu6t94lSk49+UjkPu49f4rujB6tTEJhDIkcncagdyNrv3Hw9+X16o2oVSKG0L5dq8gkDsRJuc15tpR10/Mfs0Bmj73MH2KM1MEnNdomvfNZqWmbrRVvqmrq/NW5SkqBw9yY2cfPp/zEcawbYRcQyKLaQSyiOh6Qdbi8M0w08Lnx7cnn2Q/TwCBzPNxZ7Mab6xoT4VI1lBy1zAGWYMqp/HGqvZUR+cN11yr/BoEsmAAxRqSeeyl2LYt9OktpwmxZmgVMeaYaZ87Rbg1SwgPMoGnncqtjhOny8m2nsR+2ck2SgAPMoLFGUyq346P1HeTLL5MHMWIBxnDok0cloH9MtH/VmWMidI8BDLoeN3hRqLPlA36SDKJQALaKkOroP320Rm8SAikqhBIyENjaBW23x3jRUIkCORCQ3doFZgEXiSAgQe5wsB7XFnY38+zOQJ4EIMB7zFQA16kA4JAOhQc9AngRSwPBGIpEF5ZCv0NL+J4qBcI4VVfF6T6BNQLpHu7YZ8LKUeAMAuBmFACNUwQIMzSPQYhvJoQBtkdATxIh4KDcQK6wyzdAvFvVx+3DHIhoDvEyua9VjENVfkYTbcHiWl4Gd1b8xO+agWiudMz0mb0qqoVSGVXeGKDwAIBvQJZAMPpgIDiDxMEEtgBhxAYEkAgQyKkIRAQQCABDA4hMCSAQIZESEMgIKBXIGbN8YADhxAYJaBXIKM4yBwloPjDBIGMWgSZIQHN6xuqFYjmTg+Nn+N5AmoF4rCYV//P4+GsXY1KMwXdAtHc82vb/lX/WXtpidcpF0j9u8ROpU3bEVAukO1AllrS+efptdS2rWmXaoG4gbryGHvWSGCj/BeFzjoIsyZFonz8Ybmo9iCThsEJR0B7eGUhqBcIYdbEp0GDZ0UgnW1gDB0KDnoEWOX2gkPFmui9rp9PnH+8YRsGkfoQ62omeJGOBeFVh4JPiQ6FWUjn8/mdd2VVFd7jahR4kCsLc4QXqfAefYvopUjo9iJGHEzt9kWAB+nzMCm9XgRx/M8YGKQPkbTfi9RPw/zi04RWo12MBxnB4kSiyWAIrUasoM1iFmsSjZJZLfNA4vnxTZ/HnOn38BQCCWmMHBc99Ys4Rnq8n4VA+jxGU6WKhO87Rru7l8kYpIdjPOFCkJJ+G2HbUiuciBjv3tlcPMgsnv7JIjwJYVW/UxdSeJAFQOFp50lynt1CHGF3rjpGIKswXS9yX6blKBI7lcts1bUjVx4RYq0ENbzMLeHWNO/D/OTSbuxkxXH6SK5uGVQIgXyzkw5/X16rOtG1xPkC8Ju9ax48+nYJFOAIJCUUvMZmVolANkPZFhRVKAhj497Eg2wO1BfohPLQ/Nr9B1iIwiPfZY8H2QVrv9DNxXIRhb0Lg+8+661TCGRrogvludkvv6yy9TB2a6qj2w//OCGYTPsCt8siNghiCIk0BCAAAQhAAAIQgAAEIAABCEAAAhCAAAQgAAEIQAACEIAABCAAAQhAAAIQgAAEIAABCKROoJiHFd1DgEPa/qHAYT7p7QlcHqa0BZf0QGWWArmKwfzUdepJ2O1NgBLvIeBfcGEElKNwshFIKwoEcY+NJvU/9hF+8/h+LkstJC0QRJGUaW9fmQxeKpGkQBDG9raYdImXMCxFr5KcQKK+9CBpK1JQuQQ9SlICKeLdtwrseNcmJiaSJATiQqoc3lK4q2VQeI+Aeft8CrNe0d/N60IqxNGzDRKGgLGJdiwal0ZUD4LniNv5Wdw9sieJ7EESfadtFpajpZJxbSSaQNrQauJ9UFr6nnYuEzBPSjhbWb5ylyuihFhM5e7Sl2UXGml2K44HSXW5gLJNLO/WRbIZcYHEdJd5Wwi1jzGrJS6QZBebwf4yICA/YBcVCN4jAxtMuYp2wP75cpSsoqhAJBvGvUolIOtFZAUSaaBVqqmobJewFxETCOGVSnPOvtFiAsmeFA1IiIBcmCUnEL+aUkKYqQoElgjICYSXKyz1BefXEhC0JRGBMP5Y2/Nct5aA1HSviEDWNprrILCagNA7zxDI6h7hQo0EZATCAF2jbe3bZiGbkhHIvqgoHQK7EUAgu6Gl4BIIIJASepE27EZARiCC89a7kaLgtAgI2ZSMQNJCS20gsJoAAlmNigs1EkAgGnudNq8mICMQuyYEGwS2JCBkUzIC2RIMZUFAkAACEYTNrfIjgEDy6zNqbAmYZdwkQMgIRKgxEsC4hy4CMgIJlgjWhZfW5k5ARiC5U6L+6REQ+tAVe3n14d/nJj3K1ChXAucfbyK2K+dBhOatc+1w6n0DAUFbkhMIA/UbLIBLZwkI2pKcQIRixlmwnCyDgKAticRxvlcYh3gS7L9DQGr8Yeso50Hs3QRjR3s7tgIJmJWmJFslK5BKtnGSILmXDIHzz9OrzJ3au4gKxC0MjxeR7N+y7iXsPSw8UYG0vYUXKctqBVsjODj3rRIXCF7Eo2d/EwG7yu3j6eOm/9ngYnGBtHXGi2zQd6qKkB57eLhRBNJ6kfrJV4I9BGYJRBh7+PpEEYi9uRNJxIZ7AOwTJ2BDK+GZq5CI6BeF4Y398eHz+b0SeseRvyf7TAhEFoelFF0gthJu/RAW+LQo2DwB83XA+fEtehgeLcTyHOzeuVDCrRCJ7mPrORIQh+2EJDyItwY8iSeheF/XTzGmc6eIJyUQX0mE4kko2rsnLOJ81zFHOUmB2Aq7NejsMluMTeb6L/9ziQrDg01WIL6Cdo9HCWkUcpy4MDzlLATiK9t5Fbv8FlPDHkseeysI+0tA8zxVSmOMJXhZCWTYmE4w/kS4bh0C8lT23ztvMLjNRQw2NydBDFpBEgIQgAAEIAABCEAAAhCAAAQgAAEIQAACEIAABCAAAQhAAAIQgAAEIAABCEAAAhCAAAQgAAEIQAACEIAABCAAAQhAAAIQgAAEIAABCEAAAhCAAAQgAAEIQAACEIAABCAAAQhAAAIQgAAEUifwH6qGTu0xmxzTAAAAAElFTkSuQmCC;" vertex="1" parent="1">
          <mxGeometry x="121" y="295" width="46" height="46" as="geometry" />
        </mxCell>
        <mxCell id="GKkhvcmkI-961NOV2ZCF-8" value="" style="shape=image;verticalLabelPosition=bottom;labelBackgroundColor=default;verticalAlign=top;aspect=fixed;imageAspect=0;image=data:image/png,iVBORw0KGgoAAAANSUhEUgAAAMgAAADICAYAAACtWK6eAAAAAXNSR0IArs4c6QAAAERlWElmTU0AKgAAAAgAAYdpAAQAAAABAAAAGgAAAAAAA6ABAAMAAAABAAEAAKACAAQAAAABAAAAyKADAAQAAAABAAAAyAAAAACbWz2VAAAYP0lEQVR4Ae1dTaglRxWu+xxQUIxJYCYk6MAEF0HFICNKQsgbSDa6kIxLA3EVyFJImEEXmSyUGQy4FAKigbhNcJONgbnBRJRkERGZhSQQISEzkEQXikrMtb6+77x7um//VFVXVZ/qPgX3VnV3dfWpr+rrc05VdffKaEiGwG0XN4co/GNjqhjp1cbcj7gZNiwPHVsZs6Y04s3KvMy3D+zx9y6v1nyfpuMiYNtAw1gEOBGIAG0dfux1+s4HmTiBlDx9aLkfU4K4Y1XlJDJsNuZJ7MhNBE9xt9lX5ikkblxeXdru0H9XBJQgDkiBFEURYqhOSpghhI6PK0GOodglZkeIXdX2UrYDVKaZmmR70FQ7lCBHuIAUcKbhQxRhNrW35/i9VruoKbaDcfEEIW2xaFLs+sMupWZYhcUiCaKk2PHAKbVgsiyKIEoMJzr0Z1qYCbYIgigx+vt80NGFEGXWBDl5cXPJTlRU8xVBnUBPGkZg5kSZJUGUGMP9OnqOmRJlVgRRYkTv9v4FzowosyCI+hj+/TjlGbZTVZOPc5hPKZ4gqjVSdvWRZc9AmxRLEGiNjzfm6sgm1NNzIFAwUYojyNzMqbtuN+auO+zPxgiIr727/b33vjG/f2u7v/h/S5IS13sVRZC5mVPnv27M+bPtXf/mT233r/9szE9fas9T5N7CtEkxBDl1YXN1TuulfvSdndagjg5S3HmTMUQO2g8tApLMSZuU4sCLJ8gcfY02zXHn54w5Y8nRFUCOh57pOlro/gK0ySckQwuTyj6o9EvJMvrK1iQHtMWXbzXm9s/0l/T5m+3z7DbLbLTItrqHn77v0uqfrzy17q/9dEfFapC5mVTUxM89Rqlt/ODp+vbQ1qmLQzkKPC5Yk9iBBVkBJtXJCxurOMyhLMnGS0MjVVQSzCrfcM8Z3zMKyG/Xy6HNq0EYYeKKIggAmvPcBoZzKQz5HJRvUTGIggWmgoIYglTALGjl7c2fDOsFTzwQdl4xZwkjiQiCLI0c6KzNoVzXDjwzJ7292oJIMjlBlkSOa+9s+0MoOdp700z3CiHJpATBSNUSH2i65WiWPKRrz2pWfQgAASSZjCBzHcbta3NaY9WXp+/Y03NactJXUX7MkqS6kfJ9GdOTEGSJ5KA2ff41638EOuiL0h4EmI0x5D8VSbITZMnkQJtDi4R09EVqDwEkyUoQOORznABk7eiU/MUrxvh0eOQNIZWTMAVlmkKTZFtqsqTRKp8+h3mNxzvmNpQYHUhmXJqShSBKjo6GPtr9wqPGNJeQzHL1bj8MfkczkSS5iaXk8Gt3ze2IQKYh4KQEUXI4NrZmC0MgA0mSEUTJEdbmepYnApYkWAHueZZz9mQEWeIMuTPqmjEqAilXgCchSKU9okKghSkC/QikmkiMThA1rfobUo+mQQBzJCluzFEJouRI0/haqiMCCfyRqARRv8OxITVbMgRi+yPRCJJCvSVDUQueNQIx/ZEoBFHTatb9rbjKxfRHRhOkGoO2tl9xKKrA80Ygkj9yYixK+Lb42DKWen5z/VUTBzq+iOfQm5WPsG3fHYUb93pMUaMWK6ppFQY9Oj5W8RIBXErRlb0uKO3nOViZc+9dXq33j7jtGUcQ+7Ivt8toLiDQt7TdFSEliitSu3w3rqyC+3mwD6KjVrsGGEpBU2BJe9dzH0Pn8+Mo4/rlLdn4fk13IzCmrwYxS02r7sZoHomhNZpl0rZqE0JiOA41tYI0yGpj7h8WSXNAc8TQGl1IomwQUMMwAkcO+3DGRg5vDTJH7UEvleafQgNOtJ9jRi99o3db8TeU0DGev4Q0jZJRDJln+Qx8wFOI/gSZiWOOzo9vdSC0EWF7ZPuPjo8vPyGUSoKt9P7/MOMQ5kIYX4fdiyClaw8ixRAh0CGIFEsjBOreFaBh8CuaLJ5axI8ghWoPH2LoZwm66FHfX/IAgY8WcSZIidqj+bmzehPXt6Apzp6q79OtYQSKJIqHFnEnSEHaw5cYbV+WHe4amoMjUBpRXLWI0zBvpT04GoLT+Lxy17fHudikMaA11M/gyISlSxtydn3Rg5MGwffjwmDLdxb8DJDDJaif4YJSeJ4StInt+OvrV1bnhmo5qEFK0B4wqZQcQ02d73gJ2sTe8Q9dtMiJQdiEP+sBYrgM26KeqjkGWztaBlpBIHlI2GU5fK8Gka49fMgBX+PM0WRftF6gBfUiAJJgkabU4KJFegkitWKQy5UccMAfPK2O+FRtSSuZp7r+0HWH1mj1E0SoeeVKDoCjcxtDXST9cckkgRbpQ6CTIFLNKx9ywOfQIAMBySTpc9Y7CSID1roUGK1Sh7yOSUlbIInE5fl9ZlY3QYSZVz6z4zpaJZc2cNxBFEmhz1lvJYhE88pldhygwynX0SpJ3W9fFokjW11v52kliLRXiMLvcA3qlLsiNW0+aSTpekp2jyB9DssUkPr6HVPIqNf0R0CaP9JlZu0RpEvV+EMQ5wxX0wpXU9MqDua5SqHZ9lzXG7pOm7O+R5AuVTNUeIrj0B6uQYd0XZGSlU/iqBZHaG8t1tDECT85dXpK7fHhv4358D/GfGBjCtg3h0DL++nFE6jTVNoXWkTKeq22vl8jSDV6ZXNJCFNoDxDgzX9YYsyECF3tSPWjGPne/Pt2MSfSuckCLSKFJPDB+atKawQBOFKCq/aIMefxliUFOkhf+NsHfUfLO/aFW/ZlJgyILLmIIkqLNF54XSeIkMlBH+2x38zue7o0BpHhd3815u333csrMefpW40BWe77Yl16kCQnUSRpEY5EnSD8yIRpV+0BEUPucl3EACFAjrmTgjct6oof6t5GFtIqeEEe+S78/FhpKbPrNNxLZtYxQaT4Hz7aI2TkCuR4/Xq9WUGK5/5Q37fELU4WaBTSKkSSlM/vgyD48bc7SmiDvWFeCUKlkgG+BicHiPHrPyo52vCGRvnJi1vNQseBHTBMFe61BJEQ+HzIsQaRsrwklXnVdMTRAfDT0I8AYdTUJiGmbf+V5C1ihLyiNIjrUnYI7mMPKzmAWHho3kxgcqXQJJL8EEKrIoiU9Vd4u7pr4JNcfedUDjkbwoVJRXfFvvP0WB2BNpIA29hBCkmIExVBpKy/8tIgdlTFJXCfA428pBEqF3x88uyRJIE/Im3piQgTCyNXzz3m/rQgGtXFxOJmQLNxfTqG5t0hwHFsGxHc5QxLQYNI+MQcKY1JCQKNAWL4OOausHO/A6NVaFgNcRAAlsAUASRJYWphdn1KotCi3YogtLGtcp5/aA2fB6G4VC7ag8bucZ7OcXD04qT5DQfr11IFEGVKs6siSNsqxlQVRrkgRwqtQTI3TSvar3E8BODLpdYiJO0UJCFOZDexYpBjaASLaw9+pyPANY6DAMc2pRaBtFOQBCNZBzScFQey/lLgc6TUHLi6ao/+Noh5lNZwocxUvgiXFyTJPQx8QN46FyRV2meeI4YM/A4XozwtYx8BjnFqLYKr5/RHwI2sJlZq7QEAybwi+xj7NKRFgLBOMZrVlBwaJKcWyUYQ+B6xAv82OS+Tm1c6IciRSZvmWOcgSU4tslusmBbD5L5HU3y6qzX3j92+2/pRjxyRHek33jXmT/aH8KvXtvHU/7ll5FjDzDprX943h4DpjxP4E/IY+mhM+QsW+F1tdMG2AOp0iHnANt83NUm+b8n7yFku4Va+lDICa5Ck7THeuiRxtsjMyvHsSBYTK6Z51QcxqXd+R+vL73PsZ/btjryTtZ2Ljol8U4U2cjRlgYxX7eqFobo0z3PdpjZwzS89XxaC5AYhtvZAx3MN6Hg++V3LHcrnQg5eBpmJfF9J6VwPV82SIDEb2rfj4dpNEyemPF1l+V4TRI6pRfhNaU5a5ICm1LuAL2W/tEaJ2fmG2iD0WiVrkVxDvVk0iM9zHkOdIffxrzacctfr3+3x8JdrmV35cl6rS4YUfl/XtbA/h4MO5ZGFINeOhkH7Kiz1WOjdOWd9gkkcSP62uuUawWq7dsp9WQiSsgKpy8Y8h/TwbOD8Swl1mxr7LAS59k76avJnRPACtKnDGxnqPLaONME5tpzm+bwtmsdK2z5YGbMuTeic8pZwd4YmmFob5L4p5XrZdR4NYhswhx+S4s6Fjvfs636U/MFv/PLHyO1LZNRp6ln/GPVOWQaURxaCpKxEW9lwGGPe0dCRXEmCfFPczX2IjLyxyUFOesjrYNvasG/f0y/1HY17LBtBng90JH2qe+dNPrn98g6RBJ0OmiN2x/OREtce0l4g8FAen2siL7110fe80PyvvhV6pv952VbzwsTCL8acCL781GZO8X1oND676w/N/hnogPhh6BdzDxheJdNmCq2xL+FWe537+U5GyoNBgxwypnglKdUBMbRHjjkQumY2guCC0CKhbzIhgYdikASz6qTyh/KHHEdHy9HZQmSjc3LKSBqE36BIjthxTu2xWZmXD/AXuxJd5UGDPO/p8LaVxZe1N4/zFzrE9EOa19HtLQJEDmxx7FPgk1t7oA7ZfBACDFokBkmovGbMnzbkjdfMp9txEOAYpzSvQI5cQ7scmewEwcVTkgRqnkZSYo9mceA0XXfOCfMUuExFDtTlwDJknaJSQ2WOIcnQyl1+J/veN4Yk0eOhCOTQHpOSY+p5EJDkYTviksLk4nc03pChnUHPqyPAMeVY13OFb2Gk6qFnpjGrSGp8p9BOFhpz8oL96NTEoXqpnH1yz3UY2OV7eb99e1cpvL+Jv8Npd0RTvgiAHJwgD572LaE7P4gBXyPnUG6XNDeurFaVD4Ip9a5MufanWIoCElFAg+qoFqERHgNDTo7Y2gPEkEAO4sQkTnpX88Dkcg0ub/HjDjvK5Q3reh3NV0eA+3QgB/f36jnDtqYYqWqTlKY/KoLQRlvGnPt8tMiQo05yowHpLodRrR9+SzUJYeMTQ3M8/M3dGSnIsStdTqoiiP1bSxEpFUn4LC/ugqpN3Fsc5ABmtDoBWMbWHJAGI1bSgigTC+DENrMIcPgjpEmwDwRRkhA63TEwappV3LfrPrPsI6Q0qlEsVEXCSBZBis+yuQbfERT+aTZcAy8bwKJGHeGqI07OOGkNHE1tVp26WJdhyi2MYOH6x4sV4bVLeQUQzCzX4V74Itx8GgKVTAN6Czw6AHUCJcnWP4PWIEwIz9TkkGhe1QhCQEiIYWa5rvoNeVkySIIf1ybc5AJRSLNIwCO1DKQtcJ0mMaqRQIuVz00oRF4po1eV7CvzFNVhp0HsTjtdeEgHpoyhQVy1CDSIrxahupE2wTZpFKS5b9IkSu73P0Ge2AEkACkoNEmB/bmIgWtJ1R6Q7dgHwafYPt6Yq9gpIcDEctUiaMyxjiN9W4QTRQIOuWXISQyqmyTfAzKR/4H0sQbBupNTFzai/JAcWgQgIJA2IdML+/Dciet8C/KXGMh0wuPKlM5ZD8naAzgcEyQnKK7XSu2LdMnByUJ55kaUKchAWPJYlO8BwZj/gc0aQezAlhg/BMLl8kVwraEgpUMNyVnScenaA1ge+yAErKT5EJIJvojLsC868VhfhK6pcVoEsCARy9mlBe5/QLa9mXTMh0gT2nV2HWYQOdvS6qDy1BEQZ1pZ8dr6/h5B6tWQsQVTy/WhKoxCKUlktFuXFDCtJCxpb8rXtmh3jyDwQ5onStiGFgFRXAJIMjen2qXeJeQBOSRqD2BnybBuYrhHkKPHDPcyNk+cYtvV1IJsr19XkkzRRkPXlEoOyI2+35R/jyDI0KZqmidOsQ0N8mOPF0O7PFQ1RT2Wek2JTvlxW3RYTq0EaVM1xwVNnPAhCcwsaBIN0yMAckj0OwiZG5dXlyjN41aCSDazILwvSdRp502eNw1SYCmJZHI0Jwc5Qq0EQQapzjoJ70MSOO3qkxBy+WKQQrRZ5QDF3kQhP0fipCGXj9KuE4nIn/q5BpJp6XFJ5GhODvK269QgyNQ2ccJPlpKG467zJFJaY7t8vRjN0eGcE5q1tVi0k2Jpa7NIrraYhoDPn207Wt9HS9ppUWL9qG6FIgCtgWFc0f6GZ+V6TSyUZZfAX5XyKK5r3c7bNzS6EAXlqcnlimp/PskTgH2S95lXOK9XgyBDSVoE8iKQNkF6iCjQJvgpUYCWfyhaawyYV0BjUIMgU4laBHJTcNUoIAmCml5bHPr+iybGUcWGtAeyDWoQZCpRi0BuCtAo+A0RhXwTOk+JQkjs4jkQo6qNg/ZAPicNgoylDPlC1qEAoiDgGZOh50zwjAk+LYYvVy3xoSlyuOfmfLtoD/QRJw2CjNVs48Y8WaUL/+M+CqrSRxgsV+Erg8kMo0+9zYk0RAZgMjdCoE7HwVF7IL+zBkHmOWkR1MclDGkYXgbI8u2vGfPR//je/OmrfzHmvx+5X5cTw/2scnO6ag/U0F2DIDeYNxMtguq4BCxp8QnnvjJstvmUF5L3yovG/Mt+S15DCwIe2gNn986kN4vvWvHYzKfbioBUBHz7sBdBqkp7MlAqUCrXAhEI6LveBAEDreOyXiC8WuWCEUCf9dUeqK43QXCS9KXwkFGDIsARCH1KNogg1bO7AeqKC6xpRSAbAravhmgPyBdEEJwYekGcq0ERyInAmL4aTBBU8GBlzuWsqF5LEfBGYKSlM4og0p9d9wZTT5gXAiNMKwJiFEFQiDrsBKXG0hCwnXs9VqbRBFGHfWwT6PlJELDao+qbIwv3W2rScTE4QfaZkftLe/KwozrJdrctbMRKYQpYAPlhyxIRfMiHAl84Sfs0biAQwbSiEqMQBIVdv7I6t8TFjARkMyYy+C6Vp/N4eW3PpVSrjI/I1HyOhZ+7xPSYUasmXtEIgoIxqiXpO4fNyqbevueMMd/9kjF3fDb1lbbPphCZiECcNOklEHqFkaNWzVp5LXdvnty2ffLi5tKSVvyCFE88YAxiSYG+3iT5ZdHR8YpoWpFs0QmCgkt/hp3A6YqlkqJLXpDlVftKnlk/95GAHMAzCUFQ8Bz9kdKIgXbgodRX8/A6dKV9HoLqKqNt/+hh3rZCsW9us+wwo154VJ4p1YV/2/7HbR2uX96ahG3Hi90X2e/gOCTTILjIHPyR0rUGb+xmehYaJZFpRVglJQguUjJJStcY1Mh9cdEkSUwO4JacILhIiSRZAjnQNghw3ot52fRWZPTc4CXsVIRLnIUgEKQUksCkAjmWFkCSYl71k4kc6APZCIKLSR/+hSMOR3bJQbzJlZEc6AdZCYILSiWJkgOtsw1SvydoO+saS5pIzhxxdoKgUtJIslSzqq+DSSPJFOQAPsnmQfrAx10AFe7Lk/PYEn2OIXyhUaWEqciB+k9CEFy4UpXWnkR6yqDkaEdfiladkhxAZjKC4OLVsuQJSYK7JDqChnYEgM2kmsT2jdw+RxMJS9DpwxRDwOqUu7f7JP5I5tGqLjQm1SAk1BSaRDUHoT8cZ9ciQsgBZEQQBILkJImaVkDcPeBmku2GIogcQEiEicWbKoe5hRWtGvwQyLEcBSvAY7xowa9m/bnFEYTETUUU9T0IYf841Sz71CNVfUiIJQiETkES1R593WH42KmLw3m8cggzqZqyi/FBmoJhO7Zfkt3ZbKtU4fti+iIwqao2FoyJaA3CcYuhTZa0hJ1jFzMdwxeRbFI1sRKtQbiwMbRJzLsfl21J6dEjWtakmnryz6e9iiEIKgWSVM+6W5B9Kom8al75ItadPwRLaI0STKpmrU80d0jfPhoGXFuTy/i8f2vpz3lM2a4Sh29d8SjGB+mqkI9vgjvfaBOhS5AF7Pd+6lD4CJVLkxVPEFQSJFltjPPLs8lEUK3i0kW2z6z7PI4LcwqfxZA26edW23quWRCEquSjTegckEWJQmjUY0wMer+RcQZag6MwK4JQxZQohIR/7G1G0SVmRoxdtSg1wziEKPBR7rW/JfkqRAp0AaS9wkyJQRjMUoNQ5SgOIQqdO1d/hUjhTQgLzJx8DGrnrngRBKHKjyEKyiiZLEQEH2ebcKN4ScRgdabkcuKKKKjuxjwZWmsyxeh8SY4+kQExnGwE2rfd8vtfIjEIoUVpEKo0j2OQhZfHiZPDj6GOTx/KoW0uU0h6yaTgeC2eIByMsSYYL6stDcLwgMGAZkAe3slJA/B8/DjfPzYNUmxW5uUDG89hDmMsHjhfCdKC4m0XN4cfG3PoM/nYUkwRu0AKCDqXib3YoCtBHBCNbYY5XDJZFiWEH7RKED+8qtwlEYYTAsKr6eTX4EoQP7xac5NJRgenMM2ICORDQBYlA7VIeKwECcfO6cwmeXASCMRPtgv3D/k20tThm/tBANoHZxppJQIhEj/+P1uruUYWyfm8AAAAAElFTkSuQmCC;" vertex="1" parent="1">
          <mxGeometry x="317" y="291.5" width="49" height="49" as="geometry" />
        </mxCell>
        <mxCell id="GKkhvcmkI-961NOV2ZCF-10" value="" style="shape=image;verticalLabelPosition=bottom;labelBackgroundColor=default;verticalAlign=top;aspect=fixed;imageAspect=0;image=data:image/png,iVBORw0KGgoAAAANSUhEUgAAAMgAAADICAYAAACtWK6eAAAAAXNSR0IArs4c6QAAAERlWElmTU0AKgAAAAgAAYdpAAQAAAABAAAAGgAAAAAAA6ABAAMAAAABAAEAAKACAAQAAAABAAAAyKADAAQAAAABAAAAyAAAAACbWz2VAAAaeUlEQVR4Ae1dS5IkOW6NrNFBejfSti9QUTbSVtIVxqxPoY9lpsmkU7TZ2NxAo71UmRfotWani0yn8DyISDgdoIN0+iciEGZZTidBEHzEA0j3yKzTKT6BQCAQCAQCgUAgEAgEAoFAIBAIBAKBQCAQCAQCgUAgEAgEAoFAIBAIBAKBQCAQCAQCgUAgEAgEAoFAIBAIBAKBQCAQCAQCgUAgEAgEAoFAIBAIBAKBQCAQCAQCgUAgEAgEAoFAIBAIBAKBQCAQCAQCgUAgEAgEAoFAIBAIBAKBQCAQCAQCgUAgEAgEAoFAIBAIBAKBQCAQCAQCgUAgEAgEAoFAIBAIBAKBQCAQCAQCgUAgEAgEAoFAIBAIBAKBQCAQCAQCgUAgEAgEAoFAIBAIBAKBQCAQCAQCgUAgEAgEAoHAFgg8bTHIo47xjz/92/nX05czz//p9PSVy7h+nD7OVPfGdXT/zmVcv5x+ffvPn//1TdZFeVsEgiCd8GYyMAng/J1Us5pXFII0DMc21yDIApxBio/Tb55XIIPXqiCNF6lGuSBIJXAyU+xIDMvqgTD/9fM/v1gCUV+HQBDEidcBsoXT0pFYEGYER/1NEMSB2d//9O8vJPbsED2sCB4G4CFAnGHqligIUsArbae+F0RuuSmyi2P1giACJBACt3g0i6dRS88Y/AiXIzd080c+vuVx0ZY/Fl5qA49XunJ2ibPLFKWHJgifKwBLD0eEoz2d/jJEZkmAKex1NSmTndGrB3FLowdZxug8FEF6EyI57ECKnoQYL5F+x6RZmTAD2R85s9w9QVZ0pNcjHXhXnCcz9PURiXK3BOFs0WPrxB6CK2+jtsoY7Pi1ZExP3mBy76dvD0WUuyPIvRADnp0/XiaSfGsl5gqEeQii3A1B1iIGHJU+mztDTo6LGX3s6EyWzbFJWGxyuQuCpG3IWu8rXA4AG7BirRFerrZBDoi4bJG65sqdyNLdrjm7t2q/eYIUnKkHhq6F/4ef/uN7dtZx9bMMpDl95G04+/zp53/6ltf3vE+B5kw6W88ti+bdcy69dN0sQVq3VHzITi/kSo7gWuwZgrp0yMW09NETpE3XyrJD2mqUq+ds6DlE9ZdDWFFpBG+psqhd1AJi4JCLKJy2QSVynLyPNPF0qTDwc3K0gsikSbPrdSJlVAAb/BjN7mrMP5HSPXZS3jJnt11bC24alXpNjpzuo0LXJKIxwQo6Jn0Ksidli5WLu/RpdtVsrTI7XGPmhlr3LRllyVM3y46t628ug8AJPCBxxvBmAqmztk86G7xiTKlHlF1RVX4Pi/tSlnzncukKB84yqmvMXCdICozxI7NfS0ah+Yx05GPdwv1vbsFItjGLkFytXRE9f/+/v3z/P60R9b/98XcvWhvVvf75l/95M9rMavT58y///UfSi6x8VgTPf/Pjt3fLJshTX/TDz/VD8/h2vSkUtL4kfv7rH//2DLsKXYcmEOO3P/7dHz5OTy9U8UP6obrfPUk8UC7MkbpNPhMdE4kDVzwd2LaRad4U703r2naGBuy2LdHILLdLGB+/risnmWWAoYkI4l4jwqi09XyFQmSCQXH6J+FwptuRLSwjbeY6vnrXJMl3w5bH3+LqBn8LY6wxPAuBhcQ3aWvfQyTdJxy2a/ta9qLeIOAJdmpEsHTVEIRJN6e/0oaiY3vWRsytqEvIHaZ4KwQpRcbB6dZ+R9CyYpXOow7hzYiys5a9ZHtF2e3QFWO6dVbYuZro4Q/pHOFLCOxBDkRr+aPZl29nNJk16iiDvC/RiwwDYtbYzw8qHOM2PTxw6F1F5K9W0dpJqTMCD3vrTkOaatKW6UzOM/ym4a+ZJNmKmmt0FNudTHJ6C4dErbY16rntm448roEdLdtU1gJCJRzU8wzL0RUkmZyHRPthiocmiAOlq0M6ZJtE2NF/TX8Ijpy4pAcLD+d4JQLRVZeFIyLKa+ce6v+CAUBE/u1E3C/98JjQy0REHfQuIUVu172R5LBnkBSxv+cLwPdY3LW3VslZ4fA9P6uTWrO75SyzZNJz68e6t7aLx/VeD3sG0V6ayUndGjlAaIquTzX7ejnfWyunreHs9jd/1H20eR72RSG9jDKzB0Ck9pf8JVYvcLUILHWnrckfqe5d/JylTFZG1vh9VrfaLb0cRNb7QQ7wp5//ZbPxeVznS8Uf1lpHtmPJ9WlJ5zX68p6f98mOMbpuWWbIURyL+n4o9hb7KPKLqjT7t9iOlozWbMrlkV3zuiPcH+qQDiBLh1sDMETLF6OtqtpaSDjY3EE29c3H25Qc+eB8jwcCXF5yRfBC/3z7qz1skONgW0nvSa4PB2Qbl/EeZe1tM49Vcz0MQSznrJlMB1mQbfSpiL6TvnCckTK6SYfXM+q5vdejXAvDJecemdHzR9uYAz5EmOGxLRXNv/QC5yf7tAw76KjYMQzyW/1ziEM6ogdNeOJgThBenXJFMSMDnBZEtcnXXjAGvuGa5vqMMn7gOGizbCganhpTXw3DZnygE/ZVOO8wJ2seeGJVmgtnqJLM1m27EwRgVizABB+OwpOGPhVu50oH9+KoJPO1IADnRiR+qXWU5JATcsCm1uxh6SzYL5uetTkgU5ZwOuITrV0JUrMIADb/QUTqtT0h3RPnrXGulGlAKGwzvtX0lZ5F5SEKaw6WyQ23JQxbXzSWdGo2aHWUec5afckmBErvvDXda9TtdgapWIRNDrpKFnNnD16YOVLAOT5OX84sX7qmaPpWkpnBcLLFK+nitpLOS4D6y4ALAhOcWRBhlMEsLNCPttT4JsGZxzzydTeCECgjQDWQajMEL1ieDWgx3qHfWrRLv7EFuY5xa9tdynZP6M22Jk0TLOBApSc7yeZJv6Sva1BhYuTZOt2/pTGvZygNZ9gL0mNe9JO6TC+ewDDttV7NsFjrqdc1l6IU96ghhwSf+xeuqvOQTaNVg1MsOKAXhtebLEwsHCx50q7OT44KvHCv7fnhwGiTH8sGKVMqF2wtdZudR6lzr7a9CDJyxnwy3gWpJIYcZgI+onXuHBQJN8VHc6ScqDNznsxLTnqmrxSV5aJOKZiXMR6eguX13vt87t5+PeU2dQAYrjlBNiHXgiwFPyehpi+Xyexc5VYjKuzAYLxFMQY2cXNgbqgctqVNPqLhaQ5SaNibJHs8xXou4GEuct5H2x7kMqV7cbg0xfI9txSEA8j7XmXtKQ+iMH7yDCfH1Pb9aAfh6FLCXKrpUu5FDhiDOac5dLGtVsmmBEmRzLTRWuS8A/RozoJog2iLrZH8of6vuY78PpFh+NM9rCeXwT3Gpp8POOwaCwc7ML42tlZn2Qon1bKRpsOqq7FD6gA28n5peU+SbPoUiwD/SpO18Jp1YtFRi4ivdKh+ETLXYiLe8JQFNiBKa9nBSdDr2Fg4OKKm6zr4SgU4rzUPDHlxUh1r7gs5aXtOKC0IoU/pMxcEuS9s4DKuc2PthfVmBLmk3ekTEgmStwxwJaC4t8ghdToJILvMlskRzyT0Rj/dPnJuuVJ2bunYuYzlpJ6+ua7eAcCyIdl8DT65Hbjf4xHwZgRJjqTNe6ircV75wi2R45up+MYaUhS3rDazJHewHM2DExHznfScWVfpCuKgPScqbXHfaK0tRzft5yyfZzFpwx5ZZLMzCC3QVznZrFyzvRoWhQB9wnljy3cV7BSZ7d1uLeeAc2O+ziAycU4POTAJOHc+Ge1hCEiILRx+YLPskwijrafrAYz2kELq1+yR7b3LT70VWvoI1A+rDY6eRyJLds96Izq7Fp7tZpJhoVPEHpoQQIytlVu/YR++QeBeZ42k+frka6kRELZgTphc6azEuMirNQ+Wye3h+jWum22xSsbfAjks+7Woq8mCGCAF/3UU7Kjpc2ZZIgcX5dVNDtkpK2vRPBP5vJXbV65N2+M33GMe+e+FgNhwapnhZJn1eK/oS0S1AsamZ5FNtlgpIqj4IPqoDcesfM7NmiM3HApRGdsRI0PkKvm+hRwT+2oddW4+qV0jnfoVd55M7XVuq1Wrr1V+E4KUjCOneS+1H6XNILnmKFeT0aeBGCcEjVrHvg4qCguCj5zXhKiwTdO91fkAgYa3qmK6qxQ32WIRmEiXiyfA25QUiScLlw8A+bmImPfpdY+xL79fX6cRjlf74EHgMhqsNfgkcr6MlGU32laMHdeLOdstVcNmjA8dlHnf0lpLkU3LT1uMph38eNyaAxdF5BHLrL4X5/zyvWUM7pNf87HRjvHT/nwQx3kEC5uPL3WBALx9YEeCPMtwHd9bV3YuhwPNBhJrjLn6lFVH2zoPwbV+cixe15LfeMaROlvLm2SQVuNkvwSqrDrJw6NsuKT6Ty5hm0MO1fykTBsb40GvHJfuhz9ekB9ihYz6HsBLCtYDey7Z6XOO3KZcYROcuDtREBAwZ2VMtcpLatJ5JgVDIPH+ghnJr/LZ/QzinRVFjK+5LBYor7Pu4cyWo1t9RL3bCUSfvNjTQVvsGX7fPTdqyT2IjUgudZQyGtag1C71HKV8MxlEA9aKvNr+OAE+RFMsKul7R90cyVI0W7pePclxSvafG4zC/PFe5KWhr7sLjfFBwqM5p+1SUQevC9uH9YW92kfzB01uad3NECSfaB65ZHsCFk9i1EibwD2jDxFAlUFbp8/IUXrozAMAsEAdBwxsZRKxtbnhcexwVuphS8FRh2BEY+Ab0uo7jdzuHvb01nGzBJkDAlEoRR/NSea6z7bz4krB3Ckh4/kSpdThKSciPIEITArZL9XhYQHOCN9lG8rpcexbXl97T/i+OPo8E4k0MfU8JgUvRJc125dvhiBwNhmtZNmCDSRJTnImmS5EYWJojkljvNEPxjzT9WTIoKnLZ04/2skWPGkbkcSD3ZyByXlbMXVl1RRwVFOwDmpD58pNCEILgv3+WbN9STRDBOP9qqYbdcmJ3qh4/X2QBQ4yG/XEmChOPnAs+UItYTPIzc1losxRgfkTTvl2E/fNH+BeeMeTjzUZp8c8JW6TATpWbEKQ2seB2vzyfXeSqdpP5wtziYJfztl4VlR0Rb1M1+j207E+ZP2Zb6gdYw/Om9vKMi1X6CLdQ1esxVzmKY2BOVC7ihHp5kfpQzAy5GrIqY5Tsq9321NvhZY+AnbkFVJOACurJ+XCi6Or88Lp0RFRGlGmxtEKi3/VPzGqoqKEgaKmy5iK3uaqAj7QObHXkJ/IaQYZfa+itK6b+O5m70F67BmRRa4IjQt4YvKBH+y38ZO2Uc8g1Vi0eKdFLNeCFrWmxkoMeE4vHt0byWj4YGgVoxScRmuGDDZn6xw5MN6cjl7tmxGkZLDck5fk0tagCpxElJLaoS0tSi6nLnwu5L0vELykAkR5KQlobQgMCBjpp7q/plMjOLJ/KUujDdEecp6dQpqrRUTNrFXrnlbVLpSn/b4ZzT3gsbpaELFA3Fe7Wvrm+mm6auv40O4gspus2nzg3LVfgsznItcQ+uS7l1y25V6zO9fTYx65ztL9Jod0GJCeppi2yKdZitOMnANRicBkXWa04UVkwcqrO1NhYYngTYffy6NM1x+zQCZxvQWneePF3Gi6ICCyyhKSpAxeDDajQZ03ynqbPZfYbyotNHSfbGGsU+GQzd3wXweoL7dIYEQS7pCiznALx0CBtzLepzWkY+xNpMOTPWREHQy4/KPaKdqvxWT7hOAgtpVRPHZZejEwdK/hZMAC+uW7i0TUd9TLDweTGmKk/m5s5XhLypsSxHCokf1LnWOkzHFjOJNrIYy+GPUV/yDT4ap9rL7swBZW3K7plHWWfsh4SCZ15WUmA58dLTLn/Rbeu9Zk4RiT7psSBKOXFm5iXVZRc07Jupq3ZE9T9oBCy4mzwQayoA6RMz1+Pmcy11s5RwsrKXPtaBQUHU2OhrluTAg5oyabpYLW8uYEgaGOrZY6n6WRT1OqEKRqMVrnotlCdZOxNf3eLMJjgCTU5yvuvdsrmSU2yhBs7uhaEwxGHTvdbHZIl/bijNDwizDXSCx1dShD7+Qc4NULh1OitLf7Vc5yBA2rWoctbfWuBqQCZ4rsr6/kYqvfIwj0fkrWYvQu70Fa3me0TM7TJzkPSIIHBN9qnIn1ow/9IBtXkxiOYJED+oEVZFBe6wNSIFMhm4qXrGsN59JbGwRcShuEsKi7fWoib8mJdpuAMbC2LcpFayMknFfomGzFRJu7yNniKM6oGb73uu+yxWIgEHlp4XHbvMVhXUe65g7HZGAbvY+fWR5XZCg+F7T0Z12SFJffnZe8Y6m2K2c6mv87NJBzv7Em+fiX6tzrLd+Psa4tr7tmEJ6oJ5MAfO8Bk/XucYUDYpuSjd0l4mc6q24lMao6GsJMhiXnBM+6Y/g9s8iuGYSx92QSRGUs8pLoyePxFfpQ5ugGO3C/5MO6lujo2ZeJcTl0t2eLHoTI55Xwfpnbku6ZRQ6RQRg4LKYSfbn51CuLsNNoW6GlWSo7Kwy2IwLyJHoSnHVqV2uOmmypDpgvyRIl3bJtLpvslUUORRAANhdNEqhNWxaP0yxZiLlFlg5B5Vfc03hN3+HKdI1uK+0Y9cVNKymALytrCQSltV+yLmxTy/UQWyxpuPbcX7an8vDFPZRL2yIsGLY8tOD48h6V8SlvM1rT+WUs/+GTDHmGNWQf5tJEePSXH08AkPKyvIQUwOwT34tWmhOr7zK3tHV9Y6VbXQ+XQTDxUiTRgMHiyvp86yTbPGUiXTUutTYbdjQ7U2vWaCVG7XieDDCjsxkbA2tXdbUjuLR2EOrkcE2WeBZTKu5sa5UjpCz5XdrjKbcSY0mWmsP1iATZ5U26ZwGXHpY9Y1gyKZ1bzaP6EjkuTjhkt1fqNPyIupEeceP+fzbgUGRrFTkwPhwV+NaeE5iMrRk6bV/FVI9fPNwZREKGhax1ANm/tUxO9NXTFw5qOIsrC1gRM83Zk92Hc4zH1gsxP//6otUnkWA4t7EMzfGd1uKttBbQDznuQ9eJbVm7EL0UgTvJTOr3rDg0QVKEe7IcaS3gaJHOTt0TJ6B+LnJAPx4wkEMWHc+y4+LIVutnvZcY6IFsyF9SzBz1TOTQ5noq6B/96R/IUdZ6+bRsWirhDoJOe6xfc9gtlpw6HAnZhOqwTVn0wUJBV9Jn6oIDmo2pAboyGTc5uB+CQG6LopfFa6/4Q3eurRQFoY+SgxoDF/Vj3fDAA/Ob2zKnIGgMc/0DgGb7Wg1PayleUy/AJCcaHt3OjcPOpr3smjs/zC0qxha2vMMh5uyx2lkP2j3jQs6yH3P26oCe5JxqhkC79qkdQ9Mh62ZsqA48UveS8k0SRE7YivSeA+hlm1I85O62MHKOpbJ0LDitFghK/dFGOj7mZIz2bvjM2NBtHGMeZvXNE8ScmaPBQRBo2W1xHFO4imAunqBw7SAKuXPmRJMkFN2GIrZPreOyrpJ+yGCbxrJbX2/iDLIWKFhYOMOMfrzpfpmR6dJsZUOP8iVOms5ArxiHzwtSH58lNKw6Pbotbe8GuzwYrCGzGzPXmEyLTmcWgerVMolyllhtrBaMZB8t29Scd6QulOeyB4nsisVDZxAsUIqUniiFTPLRM5uAnAo5YJb7ZSGEt/zkWaThydfV3DlyYKwlDz6uAy0oPDxBgB0WIV/4AqZXoizZEnHmshys09alMI19mxJ2pa0VvTIcvXjcxeCH32JJ1OcimpTNykMGov377FfX4Rj87ddMx+S2xwF4onRhBbJopqJ6C8TBIdOT31brzRX0uD/0m/QeE6zRgUxCDoAuxcim6Bzk8bY59R9EtKxU85t9KYu8KeMNVSkKn2jc84ZbEQSDWnyuU0AQKvzvVFc5BJvrzY6FyCAK+FhEqm52AkVlcxVIhncbUoGRgfBni2YzmNTTWgY+ZNfX2ncuFbgeInsAnyCI4SU1WyFDxebVINOSJ0prGmw8jNCGPAw5YFwQRFsiUVcR9USv/YoekvDWTL7rWMti53ljGN5j+1p2WnqDIBYyWX0iCmoPsfXKzBvdWo5mkH2ViF2bgS2bRxPb4SYIUgl6iohn6taFKHAM7OVx0O6lk/TQ1mC63SKCfKDN+HQhSi0xki1dxjbmtag6CLIIvuubYDik69vFPBwTQ25zjAjPXaqvkiRe3eiD9w81B34mBQy03usUjD8sOWBzEKSwcq1NcJhSX0mKXK53hiL9gwNWHJJHJoEwqJAv7ajuKws1EIK74npocsDAIAhQOOgnRf0hO0kTOcKjjrZm32WbUR4eATtlDRX9qkG62kfE/Uav0xQEqcPrcNIp47hIkox/3nkSh88aEp/4LpZE4wbL2K7hKykO05kYrw7Z7iLIGrBzwzf+XeYQBOkC475KaklCToqdA4iyOlmYGHiBWTp77YugPTqAis+dIOB9UkXTHW1zKvq5kbqlc0ZpUkGQEjo32Fbh7COSYKqtT7rQlwmB8i1mCtitfYIgGio3XuclCc4E0pkdB/5hS4Z3JBIiqUPW30M5CHIPq6jMoYUkcwRJZxdltPutikP6na5telo0RPzSFPFuBMSAzFwmYLmSvntrC4Lc24qK+bSQBGcJoeLhi0GQO3eBFpJYkNz778lr8w6CaKjcWR1I4skM6TcV3+9s+oumEwRZBN/tdMaLujmSpC8e8hv3yeQWfjFxou8WKoIgt7BKnWz0kGRuqEc7qAdB5jziztp7kOTOIClOJ96DFOG538bWt+Z0nnkon4kMcr8cKM4s/1NCReHPxtfP4mOUgiCPsc6TWeKloPNr8sP3rG7xq+qTSTdUPFS6bMDnIbrkX0vB0y7+rcW5t+sPAVBMMhAIBAKBQCAQCAQCgUAgEAgEAoFAIBAIBAKBQCAQCAQCgUAgEAgEAoFAIBAIBAKBQCAQCAQCgUAgEAgEAoFAIBAIBAKBQCAQCAQCgUAgEAgEAoFAIBAIBAKBQCAQCAQCgUAgEAgEAoFAIBAIBAKBQCAQCAQCgUAgEAgEAoFAIBAIBAKBQCAQCAQCgUAgEAgEAoFAIBAIBAKBQCAQCAQCgUAgEAgEAoFAIBAIBAKBQCAQCAQCgUAgEAgEAoFAIBAIBAKBQCAQCAQCgUDgQRH4fwFrnHD3T9p3AAAAAElFTkSuQmCC;" vertex="1" parent="1">
          <mxGeometry x="545" y="240.5" width="54.5" height="54.5" as="geometry" />
        </mxCell>
        <mxCell id="GKkhvcmkI-961NOV2ZCF-12" value="" style="shape=image;verticalLabelPosition=bottom;labelBackgroundColor=default;verticalAlign=top;aspect=fixed;imageAspect=0;image=data:image/png,iVBORw0KGgoAAAANSUhEUgAAAMgAAADICAYAAACtWK6eAAAAAXNSR0IArs4c6QAAAERlWElmTU0AKgAAAAgAAYdpAAQAAAABAAAAGgAAAAAAA6ABAAMAAAABAAEAAKACAAQAAAABAAAAyKADAAQAAAABAAAAyAAAAACbWz2VAAAW8UlEQVR4Ae2dTZLkthGFezS6g+SdVrO0fYOpWTmk0CGsC9jhE8z0CRz2DXwHRVheufsGtpez8tI6hKaNV8OsRrH5k0g8/LGSETMgWSCQeImPCYCs6rs731wBV8AVcAVcAVfAFXAFXAFXwBVwBVwBV8AVcAVcAVfAFXAFBlbg1cC2NzX9t9//+QQDPt19cQrJ3au7V2+R7m1Pd0+PkueLu08P2P/Xj386p9j3rS8FHBCFPwSGp7vX75E9dPKT4jJLlntcBHAcGot8/GsckAVNYyAKwrBQ8/WpEJUeEHEcmGtdah45IJPavUCx4/x7h2VHIfLHNw8IwMDQqWWkMPr0/j8//vGD8Vq/TKnATQICKDC5xsR6QDDmrnVQ5ooQj28OkN98/9d/HgCKqy6Aucq/f/zDu6uTFQ9keCpVys1HjpFiLiXHI63e3Qwgv/7+Lx+Cg86rUOKog6VVI4kMTaFh7g2n58WIwwNyA2BcOA935nelloclSlSar3WzGHFYQOQOl3t3u/S+MXboUaQDHeltSnHlIQG5pagRO5s5F+kAjLhp2G8CypdzK0Y+7tCpw8kpGn46vy3w1JP978ON76720vYXPSmQYwuiRlg9OdwKVYom8UpRynWSFyt8nWv4HgCLvTXSQ0SQIy7d1nC+1IFON4Ehp7pNp/fhHmoZOPQcRIYDtSfiGOvDQa/ufrlHinX/kDRfQg7Dj2R/jjhfK7laF/x4tQ0bQeSuh1X40huAEBjmy6gddbAzrCladGR7itlV8w4JyOf5Rtk79hYU4qEeOpjYOQdXbFxLfVi6psz1+eSQfH15/aPSnVLb4Vp2MNgI5RHVUsFoNSxl9hTLUNJa/1ARpBQcWiggcs0OBruwMiXvLqH+VCBwTbxhMl5jWBrXSd5PHkrm1D9MBHmec+Q0d/Fa9QOogjZcDEuB9XKRcqdF1JsgPylN3M1WM3rAmCEiSIk5h6Ujfr777vowOYPFltRKoGGp1T7YD3uWFjKmqH/C54StavSAvd0Dwh5WWTvjdPcl+Pi5CKstzyXo9tgaolaxHftrwz5yvepID5tYW9eAkAWGZvfhexMfUsWDHcy7r3SutY6Vat9WfraGWtvJ9TaBA7p2CwhZYPxSiOlV8F7s2IJg5zPKA0wtGLCFrFkzONCWLgFhCpziWAgSb2w7an/rb7I/bpJ1Xx15mZoFY5vCAbG6W8ViCgw4rJ2SvGJV3dFEHdW2E+tE31TXi8yywW/Yn77Y9Yh9LJNbh7Ndvc3LFtgKB0RlrFgBUAztar+iDfvDlj20SrGd7TuLZrABfsO/ac4IDd7jeLLvLEzKf91EkB4EFuEYzwtyopfYYU1ztUy1Pbe+WTtNkUPjs9R2wa4uIghT4JS73swx50PYkrtiZXHEki0Z57KiR0rkZfoutLcYHNASfgVIKbo2B4QtsHWsGYmW1blCOZjQvovKq7o76WmuEzcY7cVs31mGVZrIEbcHkMg8JT6/tt8UkB4EjoXJ7VyIHBYnxzbk7gcb3maUoX75sQffpcIhukxfupLDzbQZID0IHCvDsKdl5EBb0IaM4aF6eMPQKtJeXW90zZ0VDpSRolETQHoQOBZ72s8aWqUMTRbqbn5KG/l68F0OHCK0dphVHZAeBBaRJJ1skkNLqh6aWApPuMYK+b2mjh58x4ADbdUOs6ou8/Yg8LwjEB4ImoYIcztyj3PaEaLHbj/owXcsOERrRP29RZ1qEaQHgUWYOA0PkU7xceJ+F3DA5ox2qKJHqMIaneaSmjRjwzE3au24CiC9wjGJYna8dty+Jj75vKkdmjZM/mOY2xUcmmFWcUB6hiPT8do7L6NjlSpD2wYTfDOju4JjZtvqYVFAeoZjUsTk+B6ed8Qe1a7IxNdo90lldwmHZrm3GCCTsKYOuOA8k8AL5VxO5Tg+CPt4KaiDHev8QzO8atW8WnOOvX5QBBBUijcoSeLS4YBd1k4VLi1iD0krdTGIgprMe6s8mjJCHvzw9Adl3qyHgNo6tPnogIwAh1acpXw93nUtr5ekREEtTEt6RedUkNSKHGLX3o2SCshIcFg6VRBVO6kV/Q+Ryq+VEBqzCUltODTtoQEyEhwaYUbKo5ls5rRnGmaxbg6LkLSCY+9GSQHE4cjpfm2uDU+RH1JqnoaWRSBpBYem/dk/2nBLcOzdbTSCj5wHkITJNprAWJ1EJMHva1H+Vn0o5wGGsaNpVgS5JThE/JTVGFxztI0dSRgdGnCU+qqBGZDR4UhZxZl18sUx9CzPoQ/JkGRpFcPBgG1ujAmQ0eGACKlj8JlwDkkYbsmwZqZNtcMYjlKVJgNyBDggJuEBWDeQtOqoGNa0qpsFx95IIgmQo8AhdxuCc7uBRNqkTTVvsmrKagEJCw5N+9SAHA0OiEN6ADYsJJoOoslTE5I1OEotnqgAOSIccDyGWYQogqKaQrI3TICB8409oa0ByRoc87alHO/NRVWA9P7iYYog87xw7Pyc8bgZJHtOXmsPbnxrn1nOl4REAQfj2cyLZu8CQgxd3b4FGzrY0JBYFxxY85C4V5WARAFHbELS/p52m4BMcDDILAYH7oL4B1utd8RJJNprFFY7kjw7y0waKs5KtR0yIdHAkXET3/X5JiA2eV5cVQSOCYonDP+mIaD8iveTRTDmwy/Y0wKSF8rvnMA8pJSdDEg0cOw0MfvjTUCCgW8zaygCBwDYmReZ5gMjQ2JdkSsxzJI+kwOJFo7pZmga5Uz+FnMX001AFq9ofDJBkPd4SzTV3FEhCTeMU2pbkZ+9mjW3wQKJFo55XSWOSwNiupOvNTQBjnMRcP4tQJKqy5q+pc6nQJICR2a7d+cf0GMTEGvYnglNgcQqRg+QlBzGWHWZ+aj4ISAJlex1ymp/OkIzvIIom4D08iAttxO0hsRa/16vzdVlr3z259Hw9R6RAuUjxT8stWs7La7LbPseqKjivO1+YQpR5Onui9M5d95/iCR3KSKgukwhLhZLJ53uZJfzezuwF3aHzTQRlPJRv+wzUpYuwRZ1Z2HYner/pTqJbV8q/urcq6ujlQMsBe6sGq1cuXhavbJVQoiUMW5sPcMW3CX3HkzFda7tM2yRskOHVfUByd86ZfTFlDZvDrFEDDi19tNmZieQdiCVSBKf0+xPd76qd9slu8i6NG/PUhu3zhHmc0ltVgECg2tCQu4EL/QeFRKyLupI/kLARicYP+6QOsRTAwJNakBC7gSrrmwBSc7wiqzLUHBgWMWAI3SGpOiBzpMECC4oCQm5E8Dcza0yJMnOEePJugwHB+a/8JXoYUxN7X5lrOyOMVmK6pbOk7VSFJWXtFtj4p4yMYyNv1U40L8w3yCAcZbTqn9yBBHnsSNJKLcJHGgPnDB1RGmeKtVM3GWNX1XgLFMvcKCzyr+ZiUUO0W5S1BD75AYsx+rUHEGkBrITpdhWqSkMT9H0FIy+QA4wAniPqZNCaThZV1O7YENox9IPu507nLVt0sY4ZUeMqGxT2+X6bEBQENmZYltSOnXIU9JFy5mzBF0uMu0sWU9TexImxffhEcCDZQECUEAZ5lAqVhp9IvXBcHw99imAoCCyU1GkepMHcAlO3Svb1Kn2CtV8TtbR1A6rjhI1pZ0AR/aRyhvHK1Epzpq9z4ADRtAAQWFk56LI3U3gkIxW58r1UWrqXNH1ybtk/Uz2E/VLbj/zgnm/sJb92nrh0nU/f/zp4as33wK609Ln7HNLIvz88e9/+/rNd6j/m8z6TmgL2pRZjupyh0MlkyrTUr9QXbiQiQoIyq8FyZYIo0HicCz0TMMpDKtCv/jBMh9aq446xIorITs9Ljo83dS99EccLpiGK1dGrxyQdTLZSdRppZXlT7PmHHNLzc9B5gXNjzXPCObXKI/vtXeIlG+y7dT9XlZcdvIlfexwJMm1lbnYF62KAYLWFIAk+Q7JgoTwFumVgx2OKzlyDpL7REplRQGBIURIzEIwIMHTdlYUcThSuuhy3mm+8Y75sHKppuKAoFICJGY4pNGk79dLcebU4TBLd75QwMBNTzvUzqmxCiAwMAOSbDhQP8TE5B771k0edFmvdzisyn3+7jr8VwsMsbTYKpZUME8TOwkFjtgGDJPwIlx8TrsfIDfrldjuPZNMugy8WmVq756Ims/NDtcUvpZH01m0S7lrdWydt0JiBUTT3i17Z5+ZOstocGAohWFxjWHUTN+rwyaAiAXzjgNR8BnCqOQplRogMXXMeRsz22OygQUH/APfTG0K7yktvulraqL4vgco4gY0BSQ2pMV+AiSmjnlEOJb8JMDgM0CDdOmLTgLB9Pkj0jBSeEDaOlLAhqXtpgERQXY6ssMxRQ7R65ZSB2Ty9hRNTjjEXVCWhS13th3gphrViQlQ9rBKbe3BMjogZIc6HGRBGxfngBAd4HAQxeykKAeE5AiHgyRkZ8U4IASHOBwEETstwgHJdIzDkSlg55c7IBkOcjgyxBvkUgfE6CiHwyjcYJc5IAaHORwG0Qa9xAFJdJzDkSjY4NkdkAQHOhwJYh0kqwOidKTDoRTqYNkcEIVDHQ6FSAfN4oDsONbh2BHo4B87IBsOdjg2xLmRjxyQFUc7HCvC3NhpB2TB4Q7Hgig3esoBmTne4ZgJcuOHDkjUARyOSAzfPSswJCD4eiysxw+5yY8E4HjrhwLw9wKRB9v0I3afD6b/HY4rOfxgUmAIQACE/Hj0EgQWb+IXNmJoQhmXP8BpKS+65hDfIY9vQvjlEct38yNNht3tFpASUFTw0vBw7ERSU/sq6F6siu4AETBYkaKYci8LNnWenn59ZAcOabGpnXLxaGk3gAwMBnxu6jQDwnHu3xie1vj1yx5gag7I4GAcAg40IkSPp5QOeSuQVPvzB0viI6Tjl9YHHE5Jc4aPHGjINLSSNqlS+AwRUJV54ExNAEHUmMRlrRy1cMEh4MgR7hYgqQ7IAaIG+tSh4IifJaUCc3RIqgJygKhxODjQIPkd4lQ4JP+RIakGCGvFRpzSKD1U5GBqeFRIiq9iYb5h/ZNnTAcSyjo0HNNEPXtOeLTVreIRxOF4OuXCWaPT4f001JNr69EiSdEIUmNYBacGpzzCsfLXisTJeJlR9kO+t3CeHCekh44csQ7MaF8D6tj2UvvFAGGF7HnDIbxMKi0v0E2d4BTK3R1OWP+QKOvG0KKTOSTXPa4IICXgEDAsUFw3+floshMnLrCgHpyw/jHJkeFAu7E5JJ91wP90QArAYRriPDex3t4R4BC1HJLPSpSYpF/uxiK2JcWdHEOcpS83WcorfU1vcKCD45+13YjU0N96fXzdyBN3agQhRo9hogY6Qk9wwAfh5rK0IGHS9NYjCQ0QlpDWiXF8x6q53xMcGlss+rJ8C79gZDDSq/K0IVa8pGrpoDKkYk7CLXakXKPpkJryGJ0GkUOzjI3nUqlDr1seblEiCGNoFeYaFFs0HZKRh9Fm2MGCIxSVNPdrHUmCvaYhHzSrudEiSI7RrMlgjg0p1/YER4rdcd7WkSTY8n7SMTaru/1sQKZwnXT3mqlwP9KwarI9p73nIhiRI9LRZI9DEim4sps9rMm8myaFWYz50Q4Za6OThf3HmkvBjAkrGY7kr8vO+4IPt+aKPB9nR5BQlOnuBRO0HRudMoD4BDAEDlw/7SNUP40QrmEzGw4pE6l180iyrlwWIJmd8n7drOdPUAcc+Hxmda/7MW0JOFbVSPzAIVkWLAuQ4PC3y8Xun9VEjwnAlAhVHJKc+VKp9X95eXNf9e0cDslLfbIAiYc7L4vePLMbPQxwSIXFIUEkkMpS0tTnD9qyJ2h3NdWU55Bcq2QGJGN4tTsxz4BDWlcUEusdW35fWIxkplNEdkiYooayzICQ7bgUR4BDyioGCe7Y1igixpVIHRK+qjmApMwNLpZvzT2IcEh9xSAJw8tHqUSbZgxJtVXIyqBHErVi2xlzANkuOfHTAnCIBUUgCc8OHqSClLTUPCS2wSNJrEbevgmQDCcv3tkKwiHq0CGxrmaFSfBJjCqZOiQcdU2AMJ1cAQ5Rig5Jj/MQaSxShyRWw7ZvAsRW1cVhl8srwiF1UiGxzENynh1JI1JShyRFrZd5qwISV98ADqmeBol1HiKG1EodErvSJkBy74IN4RClaJBIgdq0xkrWki0OyZIq++dMgOwXu56jAzjEuGaQiAG1U4ckXfFqgGBC2xEcopRDIkoY0lt4LaUaINPQwvRwccF398QVJDMk1qXehfZUPeWRRC93NUD0Ju3mPL/LhTdjW0OS8Txot5GlMzgkOoVHA+TqRUc2JCN3eJ27r3M5JNd6LB2ZALGs/y9VnnjuCg65lglJ6tu2zAem0p7aqUOyrbgJkO0ii3y6CIfUxIIE86TSUYQ4LJTmZ6cOybqEJkAqPyDbhEOaxoPktXohIXT2t1K/Nm0UfXfNc0iWJTIBslxUkbMqOKRmFiRS3l46rcztZRvmc4fkpatMgFRa3kyC42XTbGe0d3jrUKxy9E0WwSG5lswECIooPJY2wcH6rdxriZaPrBP0SjeXZaOVZx2SZ6HMgDwXQd9rCsfUOTSNUs9VNIX1ludokNgjvtEz1h8u2KmuKRzBtsUvdM1tnl6ZmZ/WHKvK1xRUI8/BIDFJZo4gBYYKTeHAkFEbPSyrVybvdHDRUSBJfcYl0psBQQHEeUhzOLACJqJspYge1tUrLYBb9bf4rAdIQrubRN9MQH5hGD0MHFPntM49GFq14ONcZ0tIGG+Ba1cn5wJnAUIYZg0FR8bcY677kMctIGHAkSP2q5yLcW3G0upQcGAVBN9/sOoVOle21ta62dcxO214LvRu7UbLrMeqf1YEgfDG1ayh4EA7c+AIlw89vEL7461GJGHCEWw36/86brhl/38f//Hfr958i7vjSXn9cHBMf7jnG2X7XmQLHerdi5ODn/j5408PiX5fbfHT3avf/+rN7x7Rl5CJDccE9Gr9Wx+gY1M2TaO2wumWERnDuKtiseqmXa2SCwl1m24IUn/vqcbv2jagf0xvKFgXQuZVZWtPAwSWQSw8I5gvg6JjYii2Ntactyo+JnTQc3GpcGDOgbXzeVti2zT71rGvpuxe8jAhIbYpGw7YQgUkbpw82rdAIeW0hCNzziFNoDhJCus57QwSmu7FAMl1Zis4iI6mOSlXy1rXE7XLMZmqe5eAtICDNaQSz97C0EraGqeNIaHCgXZ9GTeuh/3acAgYn8LXbfF3c0nbPamc4YrBilGABHazJtpaDehwoOKuIkhNOASM3En4gveKOGqhnq5PVY4kxTTvBpDScAgQ6FUFoDh31tSVsq57OMG4SpAUgwMSdAEIU0h0UvFtKRCk/Dh1OGI1nveZvn0u9bJXFA7U0gsgtMH/RbrKO7c6KdfIXAiS4nCgbdnvYmkE2sozibeVpfvP8AS4eyMbGoiJe6j+nmhCFThgb3erWEQRixflwyq9xMTVrWpwoHXNI0joZG/1MneV8z71va6urG9gDCGSVIUDEnUACOVbibXdXd1RtRtYqr4MSJpo3hyQUo4oVS7mG5OTS1Vx+HINkDSBA47I/j5IrjfxHYCv33x3CuV8k1tWyesx3whw/JDz8mVJ+0YrO+H7JM3ggKZdLPPCENaDQpTF3ACG9VV9ph1HLWttCbgX3bsBBB1gTawWnaMXB7Voe6s68bYD6u4pSncFCMSBSORvlaFY9eZgqKW6iYzdARKrjogSOuyLbyjGeRj7AgXK6unuxWibl5GnQNeAxE2LnrhTXqMWKByIWGXfnyswDCBzw6OhWFhpWH/YGF5YfMS1YQXqQcpwKEQJT10BV8AVcAVcAVfAFXAFXAFXwBVwBVwBV8AVcAVcAVfAFXAFXIFDK/B/XHCjLaGF8VQAAAAASUVORK5CYII=;" vertex="1" parent="1">
          <mxGeometry x="551" y="345.13" width="43.75" height="43.75" as="geometry" />
        </mxCell>
      </root>
    </mxGraphModel>
  </diagram>
</mxfile>
